<svg width="16" height="16" viewBox="0 0 16 16" fill="none" xmlns="http://www.w3.org/2000/svg">
<path d="M7.18529 13.0552L2.90183 8.6393C2.82344 8.54658 2.76476 8.44527 2.72579 8.3354C2.68637 8.22506 2.66666 8.11194 2.66666 7.99603C2.66666 7.88013 2.68637 7.767 2.72579 7.65666C2.76476 7.54679 2.82344 7.44549 2.90183 7.35276L7.18529 2.93682C7.35327 2.76296 7.56044 2.67302 7.80681 2.66699C8.05318 2.66143 8.26596 2.75137 8.44513 2.93682C8.61311 3.12226 8.70001 3.33947 8.70584 3.58843C8.71121 3.83785 8.62991 4.05529 8.46193 4.24074L5.70708 7.07459H12.443C12.6894 7.07459 12.8995 7.1643 13.0733 7.34372C13.2466 7.52361 13.3333 7.74104 13.3333 7.99603C13.3333 8.25102 13.2466 8.46846 13.0733 8.64834C12.8995 8.82776 12.6894 8.91747 12.443 8.91747H5.70708L8.46193 11.7513C8.61871 11.9252 8.70001 12.1396 8.70584 12.3946C8.71121 12.6496 8.62991 12.8698 8.46193 13.0552C8.28275 13.2407 8.06998 13.3334 7.82361 13.3334C7.57724 13.3334 7.36447 13.2407 7.18529 13.0552Z" fill="#4A7CDC"/>
</svg>
