<svg width="24" height="24" viewBox="0 0 24 24" fill="none" xmlns="http://www.w3.org/2000/svg">
<path d="M11.5786 12.7571C11.8596 12.7571 12.0984 12.6587 12.2951 12.4621C12.4917 12.2655 12.59 12.0266 12.59 11.7457V8.92134C12.59 8.64035 12.4917 8.40472 12.2951 8.21445C12.0984 8.02416 11.8596 7.92902 11.5786 7.92902C11.2976 7.92902 11.0588 8.02734 10.8622 8.22399C10.6655 8.42062 10.5672 8.65944 10.5672 8.94043V11.7647C10.5672 12.0457 10.6655 12.2814 10.8622 12.4717C11.0588 12.6619 11.2976 12.7571 11.5786 12.7571ZM11.5762 16.1555C11.8804 16.1555 12.1362 16.0526 12.3436 15.8469C12.551 15.6411 12.6547 15.3861 12.6547 15.0819C12.6547 14.7777 12.5519 14.52 12.3461 14.309C12.1403 14.098 11.8853 13.9925 11.5811 13.9925C11.2769 13.9925 11.021 14.098 10.8136 14.309C10.6062 14.52 10.5025 14.7777 10.5025 15.0819C10.5025 15.3861 10.6054 15.6411 10.8112 15.8469C11.0169 16.0526 11.2719 16.1555 11.5762 16.1555ZM11.5786 19.9722C10.4651 19.9722 9.42253 19.7625 8.45077 19.3432C7.47899 18.9239 6.63369 18.3548 5.91485 17.6359C5.196 16.9171 4.62691 16.0718 4.20759 15.1C3.78827 14.1282 3.57861 13.0856 3.57861 11.9722C3.57861 10.8587 3.78827 9.81609 4.20759 8.84432C4.62691 7.87255 5.196 7.02724 5.91485 6.3084C6.63369 5.58955 7.47899 5.02047 8.45077 4.60115C9.42253 4.18183 10.4651 3.97217 11.5786 3.97217C12.6921 3.97217 13.7347 4.18183 14.7065 4.60115C15.6782 5.02047 16.5235 5.58955 17.2424 6.3084C17.9612 7.02724 18.5303 7.87255 18.9496 8.84432C19.369 9.81609 19.5786 10.8587 19.5786 11.9722C19.5786 13.0856 19.369 14.1282 18.9496 15.1C18.5303 16.0718 17.9612 16.9171 17.2424 17.6359C16.5235 18.3548 15.6782 18.9239 14.7065 19.3432C13.7347 19.7625 12.6921 19.9722 11.5786 19.9722ZM11.5785 17.9493C13.2347 17.9493 14.6449 17.369 15.8093 16.2082C16.9736 15.0475 17.5558 13.6354 17.5558 11.9722C17.5558 10.3089 16.9736 8.89688 15.8093 7.73613C14.6451 6.57538 13.2349 5.995 11.5787 5.995C9.92256 5.995 8.51231 6.57538 7.34797 7.73613C6.18362 8.89688 5.60145 10.3089 5.60145 11.9722C5.60145 13.6354 6.18359 15.0475 7.34788 16.2082C8.51215 17.369 9.92237 17.9493 11.5785 17.9493Z" fill="#FF4343"/>
</svg>
