<svg width="40" height="40" viewBox="0 0 40 40" fill="none" xmlns="http://www.w3.org/2000/svg">
<circle cx="20" cy="20" r="19.5" fill="#EBFBFC" stroke="#C2ECEF"/>
<path d="M20 29C17.4828 29 15.3536 28.5884 13.6121 27.7652C11.8707 26.942 11 25.9367 11 24.7493V15.2507C11 14.0792 11.8786 13.0777 13.6359 12.2462C15.3931 11.4154 17.5145 11 20 11C22.4697 11 24.5872 11.4154 26.3527 12.2462C28.1176 13.0777 29 14.0792 29 15.2507V24.7493C29 25.9367 28.1293 26.942 26.3879 27.7652C24.6464 28.5884 22.5172 29 20 29ZM20 17.1504C21.3931 17.1504 22.7942 16.9525 24.2032 16.5567C25.6121 16.1609 26.4195 15.7335 26.6253 15.2744C26.4195 14.8153 25.6121 14.3837 24.2032 13.9797C22.7942 13.5764 21.3931 13.3747 20 13.3747C18.591 13.3747 17.1979 13.5764 15.8206 13.9797C14.4433 14.3837 13.628 14.8153 13.3747 15.2744C13.6121 15.7493 14.4195 16.1806 15.7968 16.5681C17.1741 16.9563 18.5752 17.1504 20 17.1504ZM20 21.8522C20.6332 21.8522 21.2548 21.8206 21.8646 21.7573C22.4738 21.6939 23.0592 21.5989 23.6209 21.4723C24.1832 21.3456 24.7177 21.1911 25.2243 21.0088C25.7309 20.827 26.1979 20.6174 26.6253 20.3799V18.124C26.1979 18.3456 25.735 18.5394 25.2366 18.7053C24.7376 18.8719 24.2111 19.0144 23.657 19.1328C23.1029 19.2518 22.5213 19.3389 21.9121 19.394C21.3023 19.4497 20.6649 19.4776 20 19.4776C19.3509 19.4776 18.7177 19.4497 18.1003 19.394C17.4828 19.3389 16.893 19.2518 16.3307 19.1328C15.769 19.0144 15.2389 18.8681 14.7406 18.6939C14.2416 18.5198 13.7863 18.3298 13.3747 18.124V20.3799C13.7863 20.6016 14.2416 20.8074 14.7406 20.9974C15.2389 21.1873 15.769 21.3456 16.3307 21.4723C16.893 21.5989 17.4866 21.6939 18.1117 21.7573C18.7373 21.8206 19.3668 21.8522 20 21.8522ZM20 26.6253C20.6966 26.6253 21.4131 26.5699 22.1495 26.4591C22.8854 26.3483 23.5661 26.2058 24.1918 26.0317C24.8168 25.8575 25.3509 25.6555 25.7942 25.4256C26.2375 25.1964 26.5145 24.9631 26.6253 24.7256V22.8021C26.1979 23.0396 25.735 23.2495 25.2366 23.4319C24.7376 23.6136 24.2073 23.7637 23.6456 23.8821C23.0833 24.0012 22.4975 24.0923 21.8883 24.1557C21.2785 24.219 20.6491 24.2507 20 24.2507C19.3509 24.2507 18.7177 24.219 18.1003 24.1557C17.4828 24.0923 16.893 23.9974 16.3307 23.8707C15.769 23.7441 15.2389 23.5896 14.7406 23.4072C14.2416 23.2254 13.7863 23.0158 13.3747 22.7784V24.7493C13.4855 24.971 13.7587 25.1926 14.1944 25.4142C14.6294 25.6359 15.1595 25.8376 15.7845 26.0193C16.4101 26.2017 17.095 26.3483 17.8391 26.4591C18.5831 26.5699 19.3034 26.6253 20 26.6253Z" fill="#49C7CF"/>
</svg>
