<svg width="40" height="40" viewBox="0 0 40 40" fill="none" xmlns="http://www.w3.org/2000/svg">
<circle cx="20" cy="20" r="19.5" fill="#E9F6FF" stroke="#CFE6F7"/>
<path d="M13.3071 25.4079L12.058 20.8476C11.975 20.5272 11.9811 20.2105 12.0761 19.8977C12.1712 19.5849 12.3744 19.3698 12.6856 19.2525L13.3902 18.9985V15.2789C13.3902 14.7514 13.5794 14.2998 13.9578 13.9241C14.3363 13.5484 14.7913 13.3605 15.3227 13.3605H17.2857V12.0426C17.2857 11.7529 17.3861 11.5068 17.5868 11.3041C17.7875 11.1014 18.0313 11 18.3181 11H21.6768C21.9636 11 22.2073 11.1014 22.4081 11.3041C22.6088 11.5068 22.7091 11.7529 22.7091 12.0426V13.3605H24.6721C25.2036 13.3605 25.6585 13.5484 26.037 13.9241C26.4154 14.2998 26.6047 14.7514 26.6047 15.2789V18.9985L27.3092 19.2525C27.6113 19.3648 27.814 19.5708 27.9173 19.8705C28.0206 20.1701 28.0271 20.4958 27.9368 20.8476L26.6877 25.4079C26.1541 25.4079 25.6572 25.3356 25.1968 25.1911C24.7363 25.0466 24.319 24.858 23.9447 24.6253C23.8188 24.5541 23.6886 24.4973 23.5543 24.4551C23.4199 24.4129 23.2804 24.3955 23.1359 24.403C22.9914 24.4104 22.8482 24.4352 22.7065 24.4774C22.5648 24.5196 22.431 24.58 22.3051 24.6587C21.9748 24.8839 21.6166 25.0651 21.2305 25.2022C20.8444 25.3393 20.4334 25.4079 19.9974 25.4079C19.5615 25.4079 19.1504 25.3393 18.7643 25.2022C18.3782 25.0651 18.02 24.8839 17.6897 24.6587C17.5638 24.58 17.43 24.5196 17.2883 24.4774C17.1466 24.4352 17.0035 24.4104 16.8589 24.403C16.7144 24.3955 16.5749 24.4129 16.4406 24.4551C16.3062 24.4973 16.1761 24.5541 16.0502 24.6253C15.6758 24.858 15.2585 25.0466 14.7981 25.1911C14.3376 25.3356 13.8407 25.4079 13.3071 25.4079ZM13.2386 29C12.9518 29 12.708 28.8987 12.5073 28.6961C12.3066 28.4933 12.2062 28.2471 12.2062 27.9575C12.2062 27.6678 12.3066 27.4216 12.5073 27.2189C12.708 27.0162 12.9518 26.9149 13.2386 26.9149H13.7645C14.2056 26.9149 14.6405 26.8596 15.0691 26.749C15.4976 26.6383 15.9136 26.4724 16.3169 26.2512C16.3941 26.2044 16.4828 26.1694 16.5831 26.146C16.6834 26.1226 16.7827 26.1109 16.8809 26.1109C16.9792 26.1109 17.0784 26.1226 17.1788 26.146C17.2791 26.1694 17.3678 26.2044 17.445 26.2512C17.8458 26.4667 18.2606 26.6247 18.6895 26.725C19.1183 26.8254 19.5535 26.8755 19.9949 26.8755C20.4364 26.8755 20.8724 26.8254 21.3029 26.725C21.7333 26.6247 22.149 26.4667 22.5499 26.2512C22.627 26.2044 22.7157 26.1694 22.8161 26.146C22.9164 26.1226 23.0156 26.1109 23.1139 26.1109C23.2121 26.1109 23.3114 26.1226 23.4117 26.146C23.512 26.1694 23.6007 26.2044 23.6779 26.2512C24.0812 26.4724 24.4972 26.6383 24.9258 26.749C25.3543 26.8596 25.7892 26.9149 26.2303 26.9149H26.7562C27.0431 26.9149 27.2868 27.0162 27.4875 27.2189C27.6882 27.4216 27.7886 27.6678 27.7886 27.9575C27.7886 28.2471 27.6882 28.4933 27.4875 28.6961C27.2868 28.8987 27.0431 29 26.7562 29H26.2303C25.685 29 25.1526 28.9344 24.6332 28.8033C24.1137 28.6721 23.6073 28.4755 23.1139 28.2132C22.6204 28.4755 22.1108 28.6721 21.5849 28.8033C21.059 28.9344 20.5298 29 19.9974 29C19.465 29 18.9359 28.9344 18.41 28.8033C17.8841 28.6721 17.3744 28.4755 16.8809 28.2132C16.3875 28.4755 15.8811 28.6721 15.3617 28.8033C14.8423 28.9344 14.3099 29 13.7645 29H13.2386ZM15.4548 18.3648L19.3563 17.099C19.5608 17.0317 19.7738 16.998 19.9954 16.998C20.2169 16.998 20.4313 17.0317 20.6385 17.099L24.54 18.3648V15.4457H15.4548V18.3648ZM19.9919 23.8342C20.2609 23.8342 20.5081 23.792 20.7333 23.7076C20.9586 23.6232 21.1816 23.5032 21.4024 23.3476C21.6897 23.1469 21.9736 22.9996 22.2538 22.9058C22.5342 22.812 22.8208 22.7651 23.1139 22.7651C23.4069 22.7651 23.6958 22.8134 23.9806 22.9101C24.2655 23.0067 24.5479 23.1554 24.8279 23.3561C24.8708 23.388 24.9091 23.4126 24.9427 23.4297C24.9763 23.4468 25.0145 23.4713 25.0574 23.5032L25.8704 20.4893L19.9974 18.5384L14.0854 20.4893L14.9154 23.4861C14.9583 23.4542 15.0002 23.4292 15.0411 23.4113C15.0821 23.3933 15.1212 23.3684 15.1584 23.3364C15.4497 23.1432 15.7396 23.001 16.0281 22.9101C16.3166 22.8191 16.6029 22.7774 16.8869 22.7848C17.1708 22.7922 17.4543 22.8395 17.7371 22.9268C18.02 23.014 18.2986 23.158 18.573 23.3587C18.7937 23.5069 19.0182 23.6232 19.2462 23.7076C19.4743 23.792 19.7229 23.8342 19.9919 23.8342Z" fill="#6EB4E7"/>
</svg>
