<svg width="16" height="16" viewBox="0 0 16 16" fill="none" xmlns="http://www.w3.org/2000/svg">
<path d="M11.4918 11.1236V11.8673C11.4918 11.9601 11.5242 12.0382 11.5891 12.1017C11.654 12.1653 11.7338 12.197 11.8286 12.197C11.9233 12.197 12.0032 12.1653 12.068 12.1017C12.1329 12.0382 12.1654 11.9601 12.1654 11.8673V10.3324C12.1654 10.2396 12.1317 10.1602 12.0643 10.0943C11.997 10.0284 11.9159 9.99541 11.8212 9.99541H10.2531C10.1583 9.99541 10.0785 10.0272 10.0136 10.0907C9.94871 10.1542 9.91627 10.2311 9.91627 10.3215C9.91627 10.4118 9.94995 10.4899 10.0173 10.5559C10.0847 10.6218 10.1632 10.6548 10.2531 10.6548H11.0203L9.85975 11.7908C9.79239 11.8567 9.75872 11.9336 9.75872 12.0216C9.75872 12.1095 9.79292 12.1864 9.86134 12.2523C9.92976 12.3183 10.0096 12.3512 10.1008 12.3512C10.192 12.3512 10.2713 12.3183 10.3387 12.2523L11.4918 11.1236ZM4.39171 12.7474C4.00899 12.7474 3.68136 12.614 3.40882 12.3472C3.13627 12.0804 3 11.7597 3 11.3851V4.36234C3 3.98769 3.13627 3.66697 3.40882 3.40018C3.68136 3.13339 4.00899 3 4.39171 3H11.566C11.9487 3 12.2763 3.13339 12.5489 3.40018C12.8214 3.66697 12.9577 3.98769 12.9577 4.36234V8.05366C12.7469 7.92327 12.5255 7.81328 12.2935 7.72369C12.0616 7.6341 11.8191 7.5716 11.566 7.53621V4.36234H4.39171V11.3851H7.37605C7.39241 11.6365 7.43521 11.8758 7.50448 12.1029C7.57374 12.3299 7.6626 12.5448 7.77107 12.7474H4.39171ZM4.39171 11.3851V4.36234V7.53621V7.50493V11.3851ZM5.44205 9.84286C5.44205 9.98851 5.49238 10.1106 5.59304 10.2091C5.6937 10.3077 5.81843 10.3569 5.96722 10.3569H7.44855C7.4847 10.177 7.5374 10.0014 7.60666 9.83001C7.67592 9.65865 7.75546 9.49157 7.84527 9.32878H5.96722C5.81843 9.32878 5.6937 9.37804 5.59304 9.47658C5.49238 9.57511 5.44205 9.6972 5.44205 9.84286ZM5.44205 7.87371C5.44205 8.01937 5.49238 8.14146 5.59304 8.24C5.6937 8.33853 5.81843 8.38779 5.96722 8.38779H8.63074C8.89104 8.16465 9.18046 7.98072 9.49899 7.83599C9.81752 7.69127 10.1564 7.59134 10.5156 7.53621C10.4517 7.48033 10.3716 7.43693 10.2753 7.40602C10.179 7.3751 10.0841 7.35964 9.99048 7.35964H5.96722C5.81843 7.35964 5.6937 7.4089 5.59304 7.50743C5.49238 7.60597 5.44205 7.72806 5.44205 7.87371ZM5.44205 5.90457C5.44205 6.05023 5.49238 6.17232 5.59304 6.27085C5.6937 6.36939 5.81843 6.41865 5.96722 6.41865H9.99048C10.1393 6.41865 10.264 6.36939 10.3647 6.27085C10.4653 6.17232 10.5156 6.05023 10.5156 5.90457C10.5156 5.75892 10.4653 5.63682 10.3647 5.53829C10.264 5.43976 10.1393 5.39049 9.99048 5.39049H5.96722C5.81843 5.39049 5.6937 5.43976 5.59304 5.53829C5.49238 5.63682 5.44205 5.75892 5.44205 5.90457ZM11.0408 13.6667C10.3143 13.6667 9.69507 13.416 9.18303 12.9148C8.67099 12.4135 8.41496 11.8074 8.41496 11.0962C8.41496 10.3851 8.67099 9.77888 9.18303 9.27765C9.69507 8.77643 10.3143 8.52581 11.0408 8.52581C11.7673 8.52581 12.3866 8.77643 12.8986 9.27765C13.4106 9.77888 13.6667 10.3851 13.6667 11.0962C13.6667 11.8074 13.4106 12.4135 12.8986 12.9148C12.3866 13.416 11.7673 13.6667 11.0408 13.6667Z" fill="#4A7CDC"/>
</svg>
