<svg width="40" height="40" viewBox="0 0 40 40" fill="none" xmlns="http://www.w3.org/2000/svg">
<circle cx="20" cy="20" r="19.5" fill="#EFFBE1" stroke="#D7EDBB"/>
<path d="M12.0415 27C11.7533 27 11.5078 26.8962 11.305 26.6887C11.1017 26.4817 11 26.2311 11 25.937V24.3324C11 23.8109 11.1341 23.3295 11.4024 22.8883C11.6713 22.447 12.0284 22.1127 12.4738 21.8854C13.3122 21.4709 14.1638 21.1532 15.0284 20.9323C15.893 20.7119 16.7773 20.6017 17.6812 20.6017C18.5852 20.6017 19.4728 20.7087 20.3443 20.9226C21.2152 21.1366 22.0568 21.4575 22.869 21.8854C23.3144 22.1127 23.6715 22.4435 23.9403 22.8778C24.2086 23.3127 24.3428 23.7975 24.3428 24.3324V25.937C24.3428 26.2311 24.2414 26.4817 24.0386 26.6887C23.8353 26.8962 23.5895 27 23.3013 27H12.0415ZM25.5808 27C25.7249 26.8797 25.8428 26.7259 25.9345 26.5387C26.0262 26.3515 26.0721 26.1442 26.0721 25.9169V24.212C26.0721 23.5969 25.9183 22.9984 25.6107 22.4165C25.3025 21.8351 24.8406 21.297 24.2249 20.8023C24.8144 20.8959 25.3746 21.0328 25.9054 21.2131C26.4357 21.3938 26.9367 21.618 27.4083 21.8854C27.9192 22.1528 28.3122 22.4906 28.5873 22.8987C28.8624 23.3062 29 23.7574 29 24.2521V25.937C29 26.2311 28.8983 26.4817 28.695 26.6887C28.4922 26.8962 28.2467 27 27.9585 27H25.5808ZM17.6812 19.7994C16.7511 19.7994 15.9619 19.4683 15.3137 18.8062C14.665 18.1446 14.3406 17.3457 14.3406 16.4097C14.3406 15.4604 14.665 14.6546 15.3137 13.9924C15.9619 13.3308 16.7511 13 17.6812 13C18.5983 13 19.3811 13.3308 20.0299 13.9924C20.6781 14.6546 21.0022 15.4604 21.0022 16.4097C21.0022 17.3457 20.6781 18.1446 20.0299 18.8062C19.3811 19.4683 18.5983 19.7994 17.6812 19.7994ZM26.0721 16.4097C26.0721 17.3457 25.7479 18.1446 25.0997 18.8062C24.451 19.4683 23.6681 19.7994 22.7511 19.7994C22.5939 19.7994 22.4073 19.7828 22.1914 19.7497C21.975 19.716 21.7817 19.6724 21.6114 19.6189C21.9782 19.1777 22.2598 18.6794 22.4563 18.1242C22.6528 17.5696 22.7511 16.9981 22.7511 16.4097C22.7511 15.8214 22.6528 15.2496 22.4563 14.6944C22.2598 14.1398 21.9782 13.6418 21.6114 13.2006C21.8079 13.1203 21.9978 13.0669 22.1812 13.0401C22.3646 13.0134 22.5546 13 22.7511 13C23.6681 13 24.451 13.3343 25.0997 14.0029C25.7479 14.6714 26.0721 15.4737 26.0721 16.4097ZM13.083 24.8739H22.2598V24.3926C22.2598 24.2588 22.2239 24.1353 22.1521 24.0219C22.0798 23.908 21.9847 23.8176 21.8668 23.7507C21.1987 23.4164 20.5175 23.1624 19.8231 22.9885C19.1288 22.8147 18.4148 22.7278 17.6812 22.7278C16.9607 22.7278 16.2433 22.8147 15.5291 22.9885C14.8154 23.1624 14.131 23.4164 13.476 23.7507C13.3581 23.8176 13.2632 23.908 13.1914 24.0219C13.1191 24.1353 13.083 24.2588 13.083 24.3926V24.8739ZM17.6812 17.8539C18.0611 17.8539 18.3918 17.7135 18.6732 17.4327C18.9551 17.1519 19.0961 16.8109 19.0961 16.4097C19.0961 16.0086 18.9551 15.6676 18.6732 15.3868C18.3918 15.106 18.0611 14.9656 17.6812 14.9656C17.2882 14.9656 16.9541 15.106 16.679 15.3868C16.4039 15.6676 16.2664 16.0086 16.2664 16.4097C16.2664 16.7975 16.4039 17.135 16.679 17.4222C16.9541 17.71 17.2882 17.8539 17.6812 17.8539Z" fill="#86C833"/>
</svg>
