<svg width="40" height="40" viewBox="0 0 40 40" fill="none" xmlns="http://www.w3.org/2000/svg">
<circle cx="20" cy="20" r="19.5" fill="#FCEBF3" stroke="#F5C0DA"/>
<path d="M25.4662 28.9914C25.3418 28.9914 25.2217 28.9678 25.1059 28.9206C24.9901 28.8734 24.8856 28.7999 24.7922 28.6999L20.8749 24.5015C20.7816 24.4014 20.7129 24.2893 20.6688 24.1653C20.6248 24.0412 20.6028 23.9125 20.6028 23.7791C20.6028 23.6457 20.6248 23.5152 20.6688 23.3874C20.7129 23.2597 20.7816 23.1458 20.8749 23.0457L22.442 21.3552C22.5353 21.2552 22.6416 21.1797 22.7608 21.1288C22.88 21.078 23.0018 21.0525 23.1263 21.0525C23.2507 21.0525 23.3726 21.078 23.4918 21.1288C23.6109 21.1797 23.7172 21.2552 23.8106 21.3552L27.7279 25.5646C27.8212 25.6646 27.8899 25.7767 27.934 25.9007C27.978 26.0248 28 26.1535 28 26.2869C28 26.4203 27.9763 26.5509 27.9288 26.6786C27.8813 26.8064 27.8109 26.9203 27.7176 27.0203L26.1505 28.6999C26.0572 28.7999 25.9509 28.8734 25.8317 28.9206C25.7125 28.9678 25.5907 28.9914 25.4662 28.9914ZM25.4765 26.7642L25.9219 26.2869L23.1342 23.2992L22.6888 23.7766L25.4765 26.7642ZM14.6137 29C14.4892 29 14.3661 28.975 14.2442 28.9249C14.1224 28.8749 14.0148 28.7999 13.9215 28.6999L12.3623 27.0398C12.269 26.9398 12.1989 26.8263 12.1523 26.6994C12.1056 26.5725 12.0823 26.4424 12.0823 26.309C12.0823 26.1756 12.1056 26.045 12.1523 25.9173C12.1989 25.7895 12.269 25.6757 12.3623 25.5756L16.528 21.111H18.2082L18.7857 20.4921L15.6191 17.0983H14.4998L12 14.4303L14.3748 11.8961L16.8642 14.5642V15.7639L20.0308 19.1577L22.1825 16.8516L21.3385 15.936L22.3471 14.855H20.3014L19.6583 14.1657L22.6018 11L23.2552 11.7003V13.8927L24.2638 12.8008L27.1354 15.8893C27.3621 16.1324 27.5404 16.4102 27.6701 16.7228C27.7999 17.0353 27.8647 17.366 27.8647 17.7147C27.8647 18.0855 27.793 18.4396 27.6496 18.777C27.5061 19.1144 27.3107 19.4157 27.0634 19.6808L25.3832 17.88L24.282 19.0712L23.4561 18.1751L19.4534 22.465V24.2463L15.2877 28.6999C15.1943 28.7999 15.0898 28.8749 14.974 28.9249C14.8582 28.975 14.7381 29 14.6137 29ZM14.6137 26.7753L17.8404 23.317V22.8397H17.395L14.1683 26.298L14.6137 26.7753ZM14.6137 26.7753L14.1683 26.298L14.4001 26.5269L14.6137 26.7753Z" fill="#E0438F"/>
</svg>
