<svg width="40" height="40" viewBox="0 0 40 40" fill="none" xmlns="http://www.w3.org/2000/svg">
<circle cx="20" cy="20" r="19.5" fill="#FFF3DF" stroke="#FFE3B4"/>
<path d="M16.2832 24.7466C16.5522 24.7466 16.7776 24.6556 16.9596 24.4737C17.1415 24.2917 17.2325 24.0663 17.2325 23.7973V19.0507C17.2325 18.7817 17.1415 18.5562 16.9596 18.3743C16.7776 18.1923 16.5522 18.1014 16.2832 18.1014C16.0142 18.1014 15.7888 18.1923 15.6068 18.3743C15.4248 18.5562 15.3339 18.7817 15.3339 19.0507V23.7973C15.3339 24.0663 15.4248 24.2917 15.6068 24.4737C15.7888 24.6556 16.0142 24.7466 16.2832 24.7466ZM20 24.7466C20.269 24.7466 20.4944 24.6556 20.6764 24.4737C20.8583 24.2917 20.9493 24.0663 20.9493 23.7973V16.2027C20.9493 15.9337 20.8583 15.7083 20.6764 15.5263C20.4944 15.3444 20.269 15.2534 20 15.2534C19.731 15.2534 19.5056 15.3444 19.3236 15.5263C19.1417 15.7083 19.0507 15.9337 19.0507 16.2027V23.7973C19.0507 24.0663 19.1417 24.2917 19.3236 24.4737C19.5056 24.6556 19.731 24.7466 20 24.7466ZM23.7168 24.7466C23.9858 24.7466 24.2112 24.6556 24.3932 24.4737C24.5752 24.2917 24.6661 24.0663 24.6661 23.7973V21.8986C24.6661 21.6297 24.5752 21.4042 24.3932 21.2223C24.2112 21.0403 23.9858 20.9493 23.7168 20.9493C23.4478 20.9493 23.2224 21.0403 23.0404 21.2223C22.8585 21.4042 22.7675 21.6297 22.7675 21.8986V23.7973C22.7675 24.0663 22.8585 24.2917 23.0404 24.4737C23.2224 24.6556 23.4478 24.7466 23.7168 24.7466ZM13.5157 29C12.8147 29 12.2202 28.756 11.7321 28.2679C11.244 27.7798 11 27.1853 11 26.4843V13.5157C11 12.8147 11.244 12.2202 11.7321 11.7321C12.2202 11.244 12.8147 11 13.5157 11H26.4843C27.1853 11 27.7798 11.244 28.2679 11.7321C28.756 12.2202 29 12.8147 29 13.5157V26.4843C29 27.1853 28.756 27.7798 28.2679 28.2679C27.7798 28.756 27.1853 29 26.4843 29H13.5157ZM13.5157 26.4843H26.4843V13.5157H13.5157V26.4843Z" fill="#FFAB1E"/>
</svg>
