<svg width="16" height="16" viewBox="0 0 16 16" fill="none" xmlns="http://www.w3.org/2000/svg">
<mask id="mask0_192_280" style="mask-type:alpha" maskUnits="userSpaceOnUse" x="0" y="0" width="16" height="16">
<rect width="16" height="16" fill="#D9D9D9"/>
</mask>
<g mask="url(#mask0_192_280)">
<path d="M8.00008 13.3334C7.73311 13.3334 7.50546 13.2394 7.31712 13.0516C7.12927 12.8632 7.03535 12.6356 7.03535 12.3686V8.96475H3.63148C3.36451 8.96475 3.13686 8.87083 2.94852 8.68298C2.76067 8.49464 2.66675 8.26699 2.66675 8.00002C2.66675 7.73305 2.76067 7.5054 2.94852 7.31706C3.13686 7.12921 3.36451 7.03529 3.63148 7.03529H7.03535V3.63142C7.03535 3.36445 7.12927 3.1368 7.31712 2.94846C7.50546 2.76061 7.73311 2.66669 8.00008 2.66669C8.26705 2.66669 8.4947 2.76061 8.68304 2.94846C8.87089 3.1368 8.96481 3.36445 8.96481 3.63142V7.03529H12.3687C12.6357 7.03529 12.8633 7.12921 13.0516 7.31706C13.2395 7.5054 13.3334 7.73305 13.3334 8.00002C13.3334 8.26699 13.2395 8.49464 13.0516 8.68298C12.8633 8.87083 12.6357 8.96475 12.3687 8.96475H8.96481V12.3686C8.96481 12.6356 8.87089 12.8632 8.68304 13.0516C8.4947 13.2394 8.26705 13.3334 8.00008 13.3334Z" fill="white"/>
</g>
</svg>
