<svg width="16" height="16" viewBox="0 0 16 16" fill="none" xmlns="http://www.w3.org/2000/svg">
<path d="M4.39706 10.9412C4.89706 10.5686 5.45353 10.2745 6.06647 10.0588C6.67902 9.84314 7.32353 9.73529 8 9.73529C8.67647 9.73529 9.32353 9.84549 9.94118 10.0659C10.5588 10.2867 11.1127 10.5833 11.6029 10.9559C11.9363 10.5441 12.1961 10.0906 12.3824 9.59529C12.5686 9.10039 12.6618 8.56863 12.6618 8C12.6618 6.70588 12.2084 5.60529 11.3018 4.69824C10.3947 3.79157 9.29412 3.33824 8 3.33824C6.70588 3.33824 5.60549 3.79157 4.69882 4.69824C3.79176 5.60529 3.33824 6.70588 3.33824 8C3.33824 8.56863 3.43137 9.10039 3.61765 9.59529C3.80392 10.0906 4.06373 10.5392 4.39706 10.9412ZM8 8.61765C7.41176 8.61765 6.91667 8.41667 6.51471 8.01471C6.11274 7.61274 5.91176 7.11765 5.91176 6.52941C5.91176 5.95098 6.11274 5.46078 6.51471 5.05882C6.91667 4.65686 7.41176 4.45588 8 4.45588C8.58823 4.45588 9.08333 4.65686 9.48529 5.05882C9.88725 5.46078 10.0882 5.95098 10.0882 6.52941C10.0882 7.11765 9.88725 7.61274 9.48529 8.01471C9.08333 8.41667 8.58823 8.61765 8 8.61765ZM8 14C7.16667 14 6.38471 13.8431 5.65412 13.5294C4.92392 13.2157 4.28922 12.7892 3.75 12.25C3.21078 11.7108 2.78431 11.0761 2.47059 10.3459C2.15686 9.61529 2 8.83333 2 8C2 7.16667 2.15686 6.38471 2.47059 5.65412C2.78431 4.92392 3.21078 4.28922 3.75 3.75C4.28922 3.21078 4.92392 2.78431 5.65412 2.47059C6.38471 2.15686 7.16667 2 8 2C8.83333 2 9.61529 2.15686 10.3459 2.47059C11.0761 2.78431 11.7108 3.21078 12.25 3.75C12.7892 4.28922 13.2157 4.92392 13.5294 5.65412C13.8431 6.38471 14 7.16667 14 8C14 8.83333 13.8431 9.61529 13.5294 10.3459C13.2157 11.0761 12.7892 11.7108 12.25 12.25C11.7108 12.7892 11.0761 13.2157 10.3459 13.5294C9.61529 13.8431 8.83333 14 8 14ZM8 12.6618C8.5098 12.6618 8.98784 12.5882 9.43412 12.4412C9.88 12.2941 10.2941 12.0833 10.6765 11.8088C10.2843 11.5343 9.8702 11.3235 9.43412 11.1765C8.99765 11.0294 8.51961 10.9559 8 10.9559C7.48039 10.9559 7.00235 11.0294 6.56588 11.1765C6.1298 11.3235 5.71569 11.5343 5.32353 11.8088C5.70588 12.0833 6.12 12.2941 6.56588 12.4412C7.01216 12.5882 7.4902 12.6618 8 12.6618ZM8 7.39706C8.2451 7.39706 8.44863 7.31608 8.61059 7.15412C8.77216 6.99255 8.85294 6.78431 8.85294 6.52941C8.85294 6.28431 8.77216 6.08078 8.61059 5.91882C8.44863 5.75725 8.2451 5.67647 8 5.67647C7.7549 5.67647 7.55157 5.75725 7.39 5.91882C7.22804 6.08078 7.14706 6.28431 7.14706 6.52941C7.14706 6.78431 7.22804 6.99255 7.39 7.15412C7.55157 7.31608 7.7549 7.39706 8 7.39706Z" fill="#353535"/>
</svg>
