<svg width="12" height="12" viewBox="0 0 12 12" fill="none" xmlns="http://www.w3.org/2000/svg">
<path d="M10.0204 11.1155L6.83768 7.92722C6.55238 8.1383 6.22211 8.30631 5.84685 8.43126C5.47158 8.55622 5.06797 8.6187 4.63603 8.6187C3.53026 8.6187 2.59231 8.23296 1.82218 7.46148C1.05206 6.69 0.666992 5.7504 0.666992 4.64268C0.666992 3.53496 1.05206 2.59536 1.82218 1.82388C2.59231 1.0524 3.53026 0.666656 4.63603 0.666656C5.74181 0.666656 6.67976 1.0524 7.44988 1.82388C8.22001 2.59536 8.60507 3.53496 8.60507 4.64268C8.60507 5.08086 8.5427 5.48518 8.41796 5.85562C8.29323 6.22606 8.12551 6.55142 7.91481 6.83173L11.1202 10.051C11.2652 10.1963 11.3363 10.3726 11.3336 10.5801C11.3308 10.7876 11.2549 10.966 11.1057 11.1155C10.9607 11.2607 10.7798 11.3333 10.563 11.3333C10.3462 11.3333 10.1653 11.2607 10.0204 11.1155ZM4.63603 7.07487C5.31366 7.07487 5.88772 6.83921 6.35821 6.36789C6.82871 5.89656 7.06396 5.32149 7.06396 4.64268C7.06396 3.96386 6.82871 3.38879 6.35821 2.91747C5.88772 2.44615 5.31366 2.21048 4.63603 2.21048C3.95841 2.21048 3.38435 2.44615 2.91385 2.91747C2.44336 3.38879 2.20811 3.96386 2.20811 4.64268C2.20811 5.32149 2.44336 5.89656 2.91385 6.36789C3.38435 6.83921 3.95841 7.07487 4.63603 7.07487Z" fill="#B5B5B5"/>
</svg>
