<svg width="40" height="40" viewBox="0 0 40 40" fill="none" xmlns="http://www.w3.org/2000/svg">
<circle cx="20" cy="20" r="19.5" fill="#ECE8FF" stroke="#C0B9DA"/>
<path d="M14.0092 29C13.7288 29 13.4905 28.8946 13.2943 28.6838C13.0981 28.4731 13 28.2171 13 27.9159V12.0841C13 11.7829 13.0981 11.5269 13.2943 11.3162C13.4905 11.1054 13.7288 11 14.0092 11C14.2895 11 14.5278 11.1054 14.724 11.3162C14.9202 11.5269 15.0183 11.7829 15.0183 12.0841V12.5208H24.9816V12.0841C24.9816 11.7829 25.0798 11.5269 25.276 11.3162C25.4722 11.1054 25.7105 11 25.9908 11C26.2712 11 26.5095 11.1054 26.7057 11.3162C26.9019 11.5269 27 11.7829 27 12.0841V27.9159C27 28.2171 26.9019 28.4731 26.7057 28.6838C26.5095 28.8946 26.2712 29 25.9908 29C25.7105 29 25.4722 28.8946 25.276 28.6838C25.0798 28.4731 24.9816 28.2171 24.9816 27.9159V27.4792H15.0183V27.9159C15.0183 28.2171 14.9202 28.4731 14.724 28.6838C14.5278 28.8946 14.2895 29 14.0092 29ZM15.0183 19.1471H16.1111V16.947C16.1111 16.6458 16.2092 16.3898 16.4054 16.179C16.6016 15.9682 16.8399 15.8628 17.1203 15.8628H19.9623C20.2427 15.8628 20.481 15.9682 20.6772 16.179C20.8734 16.3898 20.9715 16.6458 20.9715 16.947V19.1471H24.9816V14.689H15.0183V19.1471ZM15.0183 25.5423H19.0285V23.3421C19.0285 23.0409 19.1266 22.7849 19.3228 22.5742C19.519 22.3634 19.7573 22.258 20.0377 22.258H22.8797C23.1601 22.258 23.3984 22.3634 23.5946 22.5742C23.7908 22.7849 23.8889 23.0409 23.8889 23.3421V25.5423H24.9816V21.0841H15.0183V25.5423ZM17.9142 19.1471H19.1684V17.7998H17.9142V19.1471ZM20.8316 25.5423H22.0858V24.195H20.8316V25.5423Z" fill="#412D8F"/>
</svg>
