<svg width="40" height="40" viewBox="0 0 40 40" fill="none" xmlns="http://www.w3.org/2000/svg">
<circle cx="20" cy="20" r="19.5" fill="#FFF0E8" stroke="#F2D0BD"/>
<path d="M25.0729 20.8542C24.9245 20.8542 24.7812 20.83 24.6432 20.7816C24.5052 20.7331 24.3805 20.6533 24.2692 20.542L20.458 16.7308C20.3467 16.6195 20.2669 16.4948 20.2184 16.3568C20.17 16.2188 20.1458 16.0755 20.1458 15.9271C20.1458 15.7787 20.17 15.6354 20.2184 15.4974C20.2669 15.3594 20.3467 15.2347 20.458 15.1234L24.2692 11.3245C24.3805 11.2132 24.5052 11.1313 24.6432 11.0788C24.7812 11.0263 24.9245 11 25.0729 11C25.2213 11 25.3646 11.0263 25.5026 11.0788C25.6406 11.1313 25.7653 11.2132 25.8766 11.3245L29.6755 15.1234C29.7868 15.2347 29.8687 15.3594 29.9212 15.4974C29.9737 15.6354 30 15.7787 30 15.9271C30 16.0755 29.9737 16.2188 29.9212 16.3568C29.8687 16.4948 29.7868 16.6195 29.6755 16.7308L25.8766 20.542C25.7653 20.6533 25.6406 20.7331 25.5026 20.7816C25.3646 20.83 25.2213 20.8542 25.0729 20.8542ZM13.15 19.6099C12.8305 19.6099 12.5589 19.4982 12.3354 19.2746C12.1118 19.051 12 18.7795 12 18.46V13.0933C12 12.7738 12.1118 12.5023 12.3354 12.2787C12.5589 12.0551 12.8305 11.9434 13.15 11.9434H18.5044C18.8239 11.9434 19.0954 12.0551 19.319 12.2787C19.5425 12.5023 19.6543 12.7738 19.6543 13.0933V18.46C19.6543 18.7795 19.5425 19.051 19.319 19.2746C19.0954 19.4982 18.8239 19.6099 18.5044 19.6099H13.15ZM22.54 29C22.2205 29 21.949 28.8882 21.7254 28.6646C21.5018 28.4411 21.3901 28.1695 21.3901 27.85V22.4956C21.3901 22.1761 21.5018 21.9046 21.7254 21.681C21.949 21.4575 22.2205 21.3457 22.54 21.3457H27.9067C28.2262 21.3457 28.4977 21.4575 28.7213 21.681C28.9449 21.9046 29.0566 22.1761 29.0566 22.4956V27.85C29.0566 28.1695 28.9449 28.4411 28.7213 28.6646C28.4977 28.8882 28.2262 29 27.9067 29H22.54ZM13.15 29C12.8305 29 12.5589 28.8882 12.3354 28.6646C12.1118 28.4411 12 28.1695 12 27.85V22.4956C12 22.1761 12.1118 21.9046 12.3354 21.681C12.5589 21.4575 12.8305 21.3457 13.15 21.3457H18.5044C18.8239 21.3457 19.0954 21.4575 19.319 21.681C19.5425 21.9046 19.6543 22.1761 19.6543 22.4956V27.85C19.6543 28.1695 19.5425 28.4411 19.319 28.6646C19.0954 28.8882 18.8239 29 18.5044 29H13.15ZM14.2999 17.31H17.3544V14.2432H14.2999V17.31ZM25.0823 18.1062L27.2397 15.9488L25.0823 13.7791L22.9249 15.9488L25.0823 18.1062ZM23.69 26.7001H26.7568V23.6456H23.69V26.7001ZM14.2999 26.7001H17.3544V23.6456H14.2999V26.7001Z" fill="#D8733A"/>
</svg>
